<svg
   xmlns:dc="http://purl.org/dc/elements/1.1/"
   xmlns:cc="http://creativecommons.org/ns#"
   xmlns:rdf="http://www.w3.org/1999/02/22-rdf-syntax-ns#"
   xmlns:svg="http://www.w3.org/2000/svg"
   xmlns="http://www.w3.org/2000/svg"
   xmlns:xlink="http://www.w3.org/1999/xlink"
   xmlns:sodipodi="http://sodipodi.sourceforge.net/DTD/sodipodi-0.dtd"
   xmlns:inkscape="http://www.inkscape.org/namespaces/inkscape"
   width="800"
   height="800"
   id="svg2"
   sodipodi:version="0.32"
   inkscape:version="0.46"
   version="1.0"
   inkscape:export-filename="/home/simulatoralive/Test.png"
   inkscape:export-xdpi="89.969025"
   inkscape:export-ydpi="89.969025"
   sodipodi:docbase="/home/simulatoralive"
   sodipodi:docname="GraphPaper-800x800.svg"
   inkscape:output_extension="org.inkscape.output.svg.inkscape">
  <defs
     id="defs4">
    <inkscape:perspective
       sodipodi:type="inkscape:persp3d"
       inkscape:vp_x="0 : 400 : 1"
       inkscape:vp_y="0 : 1000 : 0"
       inkscape:vp_z="800 : 400 : 1"
       inkscape:persp3d-origin="400 : 266.66667 : 1"
       id="perspective2924" />
    <path
       d="M 0 0 l 6.60331 -9.8642 13.2066 0 6.60331 9.8642 13.2066 0 6.60331 -9.8642 13.2066 0 6.60331 9.8642 13.2066 0 6.60331 -9.8642 13.2066 0 6.60331 9.8642 13.2066 0 6.60331 -9.8642 13.2066 0 6.60331 9.8642 13.2066 0 6.60331 -9.8642 13.2066 0 6.60331 9.8642 13.2066 0 6.60331 -9.8642 13.2066 0 6.60331 9.8642 13.2066 0 6.60331 -9.8642 13.2066 0 6.60331 9.8642 13.2066 0 6.60331 -9.8642 13.2066 0 6.60331 9.8642 13.2066 0 6.60331 -9.8642 13.2066 0 6.60331 9.8642 13.2066 0 6.60331 -9.8642 13.2066 0 6.60331 9.8642 13.2066 0 6.60331 -9.8642 13.2066 0 6.60331 9.8642 13.2066 0 6.60331 -9.8642 13.2066 0 6.60331 9.8642 13.2066 0 6.60331 -9.8642 13.2066 0 6.60331 9.8642 13.2066 0 6.60331 -9.8642 13.2066 0 6.60331 9.8642 13.2066 0 6.60331 -9.8642 13.2066 0 6.60331 9.8642 13.2066 0 6.60331 -9.8642 13.2066 0 6.60331 9.8642 13.2066 0 6.60331 -9.8642 13.2066 0 6.60331 9.8642 13.2066 0 6.60331 -9.8642 13.2066 0 6.60331 9.8642 13.2066 0 6.60331 -9.8642 13.2066 0 6.60331 9.8642 13.2066 0 6.60331 -9.8642 13.2066 0 6.60331 9.8642 13.2066 0 6.60331 9.8642 -6.60331 9.8642 6.60331 9.8642 -6.60331 9.8642 6.60331 9.8642 -6.60331 9.8642 6.60331 9.8642 -6.60331 9.8642 6.60331 9.8642 -6.60331 9.8642 6.60331 9.8642 -6.60331 9.8642 6.60331 9.8642 -6.60331 9.8642 6.60331 9.8642 -6.60331 9.8642 6.60331 9.8642 -6.60331 9.8642 6.60331 9.8642 -6.60331 9.8642 6.60331 9.8642 -6.60331 9.8642 6.60331 9.8642 -6.60331 9.8642 6.60331 9.8642 -6.60331 9.8642 6.60331 9.8642 -6.60331 9.8642 6.60331 9.8642 -6.60331 9.8642 6.60331 9.8642 -6.60331 9.8642 6.60331 9.8642 -6.60331 9.8642 6.60331 9.8642 -6.60331 9.8642 6.60331 9.8642 -6.60331 9.8642 6.60331 9.8642 -6.60331 9.8642 6.60331 9.8642 -6.60331 9.8642 6.60331 9.8642 -6.60331 9.8642 6.60331 9.8642 -6.60331 9.8642 6.60331 9.8642 -6.60331 9.8642 6.60331 9.8642 -6.60331 9.8642 6.60331 9.8642 -6.60331 9.8642 6.60331 9.8642 -6.60331 9.8642 6.60331 9.8642 -6.60331 9.8642 6.60331 9.8642 -6.60331 9.8642 6.60331 9.8642 -6.60331 9.8642 6.60331 9.8642 -6.60331 9.8642 6.60331 9.8642 -6.60331 9.8642 6.60331 9.8642 -6.60331 9.8642 6.60331 9.8642 -6.60331 9.8642 6.60331 9.8642 -6.60331 9.8642 6.60331 9.8642 -6.60331 9.8642 6.60331 9.8642 -6.60331 9.8642 6.60331 9.8642 -6.60331 9.8642 6.60331 9.8642 -6.60331 9.8642 6.60331 9.8642 -6.60331 9.8642 -13.2066 0 -6.60331 -9.8642 -13.2066 0 -6.60331 9.8642 -13.2066 0 -6.60331 -9.8642 -13.2066 0 -6.60331 9.8642 -13.2066 0 -6.60331 -9.8642 -13.2066 0 -6.60331 9.8642 -13.2066 0 -6.60331 -9.8642 -13.2066 0 -6.60331 9.8642 -13.2066 0 -6.60331 -9.8642 -13.2066 0 -6.60331 9.8642 -13.2066 0 -6.60331 -9.8642 -13.2066 0 -6.60331 9.8642 -13.2066 0 -6.60331 -9.8642 -13.2066 0 -6.60331 9.8642 -13.2066 0 -6.60331 -9.8642 -13.2066 0 -6.60331 9.8642 -13.2066 0 -6.60331 -9.8642 -13.2066 0 -6.60331 9.8642 -13.2066 0 -6.60331 -9.8642 -13.2066 0 -6.60331 9.8642 -13.2066 0 -6.60331 -9.8642 -13.2066 0 -6.60331 9.8642 -13.2066 0 -6.60331 -9.8642 -13.2066 0 -6.60331 9.8642 -13.2066 0 -6.60331 -9.8642 -13.2066 0 -6.60331 9.8642 -13.2066 0 -6.60331 -9.8642 -13.2066 0 -6.60331 9.8642 -13.2066 0 -6.60331 -9.8642 -13.2066 0 -6.60331 9.8642 -13.2066 0 -6.60331 -9.8642 -13.2066 0 -6.60331 9.8642 -13.2066 0 -6.60331 -9.8642 -13.2066 0 -6.60331 9.8642 -13.2066 0 -6.60331 -9.8642 -13.2066 0 -6.60331 9.8642 -13.2066 0 -6.60331 -9.8642 -13.2066 0 -6.60331 9.8642 -13.2066 0 -6.60331 -9.8642 -13.2066 0 -6.60331 -9.8642 6.60331 -9.8642 -6.60331 -9.8642 6.60331 -9.8642 -6.60331 -9.8642 6.60331 -9.8642 -6.60331 -9.8642 6.60331 -9.8642 -6.60331 -9.8642 6.60331 -9.8642 -6.60331 -9.8642 6.60331 -9.8642 -6.60331 -9.8642 6.60331 -9.8642 -6.60331 -9.8642 6.60331 -9.8642 -6.60331 -9.8642 6.60331 -9.8642 -6.60331 -9.8642 6.60331 -9.8642 -6.60331 -9.8642 6.60331 -9.8642 -6.60331 -9.8642 6.60331 -9.8642 -6.60331 -9.8642 6.60331 -9.8642 -6.60331 -9.8642 6.60331 -9.8642 -6.60331 -9.8642 6.60331 -9.8642 -6.60331 -9.8642 6.60331 -9.8642 -6.60331 -9.8642 6.60331 -9.8642 -6.60331 -9.8642 6.60331 -9.8642 -6.60331 -9.8642 6.60331 -9.8642 -6.60331 -9.8642 6.60331 -9.8642 -6.60331 -9.8642 6.60331 -9.8642 -6.60331 -9.8642 6.60331 -9.8642 -6.60331 -9.8642 6.60331 -9.8642 -6.60331 -9.8642 6.60331 -9.8642 -6.60331 -9.8642 6.60331 -9.8642 -6.60331 -9.8642 6.60331 -9.8642 -6.60331 -9.8642 6.60331 -9.8642 -6.60331 -9.8642 6.60331 -9.8642 -6.60331 -9.8642 6.60331 -9.8642 -6.60331 -9.8642 6.60331 -9.8642 -6.60331 -9.8642 6.60331 -9.8642 -6.60331 -9.8642 6.60331 -9.8642 -6.60331 -9.8642 6.60331 -9.8642 -6.60331 -9.8642 6.60331 -9.8642 -6.60331 -9.8642 6.60331 -9.8642 -6.60331 -9.8642 6.60331 -9.8642 -6.60331 -9.8642 6.60331 -9.8642 -6.60331 -9.8642 6.60331 -9.8642 -6.60331 -9.8642 6.60331 -9.8642 z"
       id="outline" />
    <path
       d="M 0 0 l 13.2066 0 6.60331 9.8642 13.2066 0 6.60331 -9.8642 13.2066 0 6.60331 9.8642 13.2066 0 6.60331 -9.8642 13.2066 0 6.60331 9.8642 13.2066 0 6.60331 -9.8642 13.2066 0 6.60331 9.8642 13.2066 0 6.60331 -9.8642 13.2066 0 6.60331 9.8642 13.2066 0 6.60331 -9.8642 13.2066 0 6.60331 9.8642 13.2066 0 6.60331 -9.8642 13.2066 0 6.60331 9.8642 13.2066 0 6.60331 -9.8642 13.2066 0 6.60331 9.8642 13.2066 0 6.60331 -9.8642 13.2066 0 6.60331 9.8642 13.2066 0 6.60331 -9.8642 13.2066 0 6.60331 9.8642 13.2066 0 6.60331 -9.8642 13.2066 0 6.60331 9.8642 13.2066 0 6.60331 -9.8642 13.2066 0 6.60331 9.8642 13.2066 0 6.60331 -9.8642 13.2066 0 6.60331 9.8642 13.2066 0 6.60331 -9.8642 13.2066 0 6.60331 9.8642 13.2066 0 6.60331 -9.8642 13.2066 0 6.60331 9.8642 13.2066 0 6.60331 -9.8642 13.2066 0 6.60331 9.8642 13.2066 0 6.60331 -9.8642 13.2066 0 6.60331 9.8642 13.2066 0 6.60331 -9.8642 13.2066 0 6.60331 9.8642 13.2066 0 6.60331 -9.8642 13.2066 0 6.60331 9.8642 13.2066 0 6.60331 -9.8642 13.2066 0 6.60331 9.8642 13.2066 0"
       id="tops" />
    <path
       d="M 0 0 l 6.60331 -9.8642 m 13.2066 0 l 6.60331 9.8642 m 13.2066 0 l 6.60331 -9.8642 m 13.2066 0 l 6.60331 9.8642 m 13.2066 0 l 6.60331 -9.8642 m 13.2066 0 l 6.60331 9.8642 m 13.2066 0 l 6.60331 -9.8642 m 13.2066 0 l 6.60331 9.8642 m 13.2066 0 l 6.60331 -9.8642 m 13.2066 0 l 6.60331 9.8642 m 13.2066 0 l 6.60331 -9.8642 m 13.2066 0 l 6.60331 9.8642 m 13.2066 0 l 6.60331 -9.8642 m 13.2066 0 l 6.60331 9.8642 m 13.2066 0 l 6.60331 -9.8642 m 13.2066 0 l 6.60331 9.8642 m 13.2066 0 l 6.60331 -9.8642 m 13.2066 0 l 6.60331 9.8642 m 13.2066 0 l 6.60331 -9.8642 m 13.2066 0 l 6.60331 9.8642 m 13.2066 0 l 6.60331 -9.8642 m 13.2066 0 l 6.60331 9.8642 m 13.2066 0 l 6.60331 -9.8642 m 13.2066 0 l 6.60331 9.8642 m 13.2066 0 l 6.60331 -9.8642 m 13.2066 0 l 6.60331 9.8642 m 13.2066 0 l 6.60331 -9.8642 m 13.2066 0 l 6.60331 9.8642 m 13.2066 0 l 6.60331 -9.8642 m 13.2066 0 l 6.60331 9.8642 m 13.2066 0 l 6.60331 -9.8642 m 13.2066 0 l 6.60331 9.8642 m 13.2066 0 l 6.60331 -9.8642 m 13.2066 0 l 6.60331 9.8642 m 13.2066 0 l 6.60331 -9.8642 m 13.2066 0 l 6.60331 9.8642 m 13.2066 0 l 6.60331 -9.8642 m 13.2066 0 l 6.60331 9.8642 m 13.2066 0 l 6.60331 -9.8642 m 13.2066 0"
       id="bottoms" />
    <inkscape:perspective
       id="perspective3315"
       inkscape:persp3d-origin="400 : 266.66667 : 1"
       inkscape:vp_z="800 : 400 : 1"
       inkscape:vp_y="0 : 1000 : 0"
       inkscape:vp_x="0 : 400 : 1"
       sodipodi:type="inkscape:persp3d" />
  </defs>
  <sodipodi:namedview
     id="base"
     pagecolor="#ffffff"
     bordercolor="#ffffff"
     borderopacity="1.0"
     gridtolerance="10000"
     guidetolerance="10"
     objecttolerance="10000"
     inkscape:pageopacity="0.0"
     inkscape:pageshadow="2"
     inkscape:zoom="0.61"
     inkscape:cx="159.01639"
     inkscape:cy="470.98965"
     inkscape:document-units="px"
     inkscape:current-layer="layer3"
     width="800px"
     height="800px"
     units="px"
     gridanglex="30px"
     gridanglez="30px"
     grid_units="px"
     showgrid="false"
     showguides="true"
     inkscape:grid-points="true"
     borderlayer="true"
     inkscape:window-width="1366"
     inkscape:window-height="712"
     inkscape:window-x="-4"
     inkscape:window-y="-4"
     inkscape:guide-bbox="true"
     showborder="true">
    <inkscape:grid
       id="GridFromPre046Settings"
       type="xygrid"
       originx="0px"
       originy="0px"
       spacingx="20px"
       spacingy="20px"
       color="#ffffff"
       empcolor="#ffffff"
       opacity="0.2"
       empopacity="0.4"
       empspacing="10" />
  </sodipodi:namedview>
  <metadata
     id="metadata7">
    <rdf:RDF>
      <cc:Work
         rdf:about="">
        <dc:format>image/svg+xml</dc:format>
        <dc:type
           rdf:resource="http://purl.org/dc/dcmitype/StillImage" />
      </cc:Work>
    </rdf:RDF>
  </metadata>
  <g
     inkscape:label="Main"
     inkscape:groupmode="layer"
     id="layer1" />
  <g
     inkscape:groupmode="layer"
     id="layer2"
     inkscape:label="Graph"
     style="display:inline"
     sodipodi:insensitive="true">
    <g
       inkscape:groupmode="layer"
       id="layer3"
       inkscape:label="Minor"
       style="display:inline"
       sodipodi:insensitive="true">
      <path
         style="fill:#ffffff;fill-opacity:0.37254902;fill-rule:evenodd;stroke:#ffffff;stroke-width:1px;stroke-linecap:butt;stroke-linejoin:miter;stroke-opacity:0.05555555"
         d="M 20,0 L 20,800"
         id="path3196" />
      <path
         style="fill:#ffffff;fill-opacity:0.37254902;fill-rule:evenodd;stroke:#ffffff;stroke-width:1px;stroke-linecap:butt;stroke-linejoin:miter;stroke-opacity:0.05555555"
         d="M 40,800 L 40,0"
         id="path3198" />
      <path
         style="fill:#ffffff;fill-opacity:0.37254902;fill-rule:evenodd;stroke:#ffffff;stroke-width:1px;stroke-linecap:butt;stroke-linejoin:miter;stroke-opacity:0.05555555"
         d="M 60,0 L 60,800"
         id="path3200" />
      <path
         style="fill:#ffffff;fill-opacity:0.37254902;fill-rule:evenodd;stroke:#ffffff;stroke-width:1px;stroke-linecap:butt;stroke-linejoin:miter;stroke-opacity:0.05555555"
         d="M 80,800 L 80,0"
         id="path3202" />
      <path
         style="fill:#ffffff;fill-opacity:0.37254902;fill-rule:evenodd;stroke:#ffffff;stroke-width:1px;stroke-linecap:butt;stroke-linejoin:miter;stroke-opacity:0.05555555"
         d="M 100,0 L 100,800"
         id="path3204" />
      <path
         style="fill:#ffffff;fill-opacity:0.37254902;fill-rule:evenodd;stroke:#ffffff;stroke-width:1px;stroke-linecap:butt;stroke-linejoin:miter;stroke-opacity:0.05555555"
         d="M 120,800 L 120,0"
         id="path3206" />
      <path
         style="fill:#ffffff;fill-opacity:0.37254902;fill-rule:evenodd;stroke:#ffffff;stroke-width:1px;stroke-linecap:butt;stroke-linejoin:miter;stroke-opacity:0.05555555"
         d="M 140,0 L 140,800"
         id="path3208" />
      <path
         style="fill:#ffffff;fill-opacity:0.37254902;fill-rule:evenodd;stroke:#ffffff;stroke-width:1px;stroke-linecap:butt;stroke-linejoin:miter;stroke-opacity:0.05555555"
         d="M 160,800 L 160,0"
         id="path3210" />
      <path
         style="fill:#ffffff;fill-opacity:0.37254902;fill-rule:evenodd;stroke:#ffffff;stroke-width:1px;stroke-linecap:butt;stroke-linejoin:miter;stroke-opacity:0.05555555"
         d="M 180,0 L 180,800"
         id="path3212" />
      <path
         style="fill:#ffffff;fill-opacity:0.37254902;fill-rule:evenodd;stroke:#ffffff;stroke-width:1px;stroke-linecap:butt;stroke-linejoin:miter;stroke-opacity:0.05555555"
         d="M 220,800 L 220,0"
         id="path3214" />
      <path
         style="fill:#ffffff;fill-opacity:0.37254902;fill-rule:evenodd;stroke:#ffffff;stroke-width:1px;stroke-linecap:butt;stroke-linejoin:miter;stroke-opacity:0.05555555"
         d="M 240,0 L 240,800"
         id="path3216" />
      <path
         style="fill:#ffffff;fill-opacity:0.37254902;fill-rule:evenodd;stroke:#ffffff;stroke-width:1px;stroke-linecap:butt;stroke-linejoin:miter;stroke-opacity:0.05555555"
         d="M 260,800 L 260,0"
         id="path3218" />
      <path
         style="fill:#ffffff;fill-opacity:0.37254902;fill-rule:evenodd;stroke:#ffffff;stroke-width:1px;stroke-linecap:butt;stroke-linejoin:miter;stroke-opacity:0.05555555"
         d="M 280,0 L 280,800"
         id="path3220" />
      <path
         style="fill:#ffffff;fill-opacity:0.37254902;fill-rule:evenodd;stroke:#ffffff;stroke-width:1px;stroke-linecap:butt;stroke-linejoin:miter;stroke-opacity:0.05555555"
         d="M 300,800 L 300,0"
         id="path3222" />
      <path
         style="fill:#ffffff;fill-opacity:0.37254902;fill-rule:evenodd;stroke:#ffffff;stroke-width:1px;stroke-linecap:butt;stroke-linejoin:miter;stroke-opacity:0.05555555"
         d="M 320,0 L 320,800"
         id="path3224" />
      <path
         style="fill:#ffffff;fill-opacity:0.37254902;fill-rule:evenodd;stroke:#ffffff;stroke-width:1px;stroke-linecap:butt;stroke-linejoin:miter;stroke-opacity:0.05555555"
         d="M 340,800 L 340,0"
         id="path3226" />
      <path
         style="fill:#ffffff;fill-opacity:0.37254902;fill-rule:evenodd;stroke:#ffffff;stroke-width:1px;stroke-linecap:butt;stroke-linejoin:miter;stroke-opacity:0.05555555"
         d="M 360,0 L 360,800"
         id="path3228" />
      <path
         style="fill:#ffffff;fill-opacity:0.37254902;fill-rule:evenodd;stroke:#ffffff;stroke-width:1px;stroke-linecap:butt;stroke-linejoin:miter;stroke-opacity:0.05555555"
         d="M 380,800 L 380,0"
         id="path3230" />
      <path
         style="fill:#ffffff;fill-opacity:0.37254902;fill-rule:evenodd;stroke:#ffffff;stroke-width:1px;stroke-linecap:butt;stroke-linejoin:miter;stroke-opacity:0.05555555"
         d="M 420,0 L 420,800"
         id="path3232" />
      <path
         style="fill:#ffffff;fill-opacity:0.37254902;fill-rule:evenodd;stroke:#ffffff;stroke-width:1px;stroke-linecap:butt;stroke-linejoin:miter;stroke-opacity:0.05555555"
         d="M 440,0 C 440,800 440,800 440,800"
         id="path3234" />
      <path
         style="fill:#ffffff;fill-opacity:0.37254902;fill-rule:evenodd;stroke:#ffffff;stroke-width:1px;stroke-linecap:butt;stroke-linejoin:miter;stroke-opacity:0.05555555"
         d="M 460,800 L 460,0"
         id="path3236" />
      <path
         style="fill:#ffffff;fill-opacity:0.37254902;fill-rule:evenodd;stroke:#ffffff;stroke-width:1px;stroke-linecap:butt;stroke-linejoin:miter;stroke-opacity:0.05555555"
         d="M 480,0 L 480,800"
         id="path3238" />
      <path
         style="fill:#ffffff;fill-opacity:0.37254902;fill-rule:evenodd;stroke:#ffffff;stroke-width:1px;stroke-linecap:butt;stroke-linejoin:miter;stroke-opacity:0.05555555"
         d="M 500,800 L 500,0"
         id="path3240" />
      <path
         style="fill:#ffffff;fill-opacity:0.37254902;fill-rule:evenodd;stroke:#ffffff;stroke-width:1px;stroke-linecap:butt;stroke-linejoin:miter;stroke-opacity:0.05555555"
         d="M 520,0 L 520,800"
         id="path3242" />
      <path
         style="fill:#ffffff;fill-opacity:0.37254902;fill-rule:evenodd;stroke:#ffffff;stroke-width:1px;stroke-linecap:butt;stroke-linejoin:miter;stroke-opacity:0.05555555"
         d="M 540,800 L 540,0"
         id="path3244" />
      <path
         style="fill:#ffffff;fill-opacity:0.37254902;fill-rule:evenodd;stroke:#ffffff;stroke-width:1px;stroke-linecap:butt;stroke-linejoin:miter;stroke-opacity:0.05555555"
         d="M 560,0 L 560,800"
         id="path3246" />
      <path
         style="fill:#ffffff;fill-opacity:0.37254902;fill-rule:evenodd;stroke:#ffffff;stroke-width:1px;stroke-linecap:butt;stroke-linejoin:miter;stroke-opacity:0.05555555"
         d="M 580,800 L 580,0"
         id="path3248" />
      <path
         style="fill:#ffffff;fill-opacity:0.37254902;fill-rule:evenodd;stroke:#ffffff;stroke-width:1px;stroke-linecap:butt;stroke-linejoin:miter;stroke-opacity:0.05555555"
         d="M 620,0 L 620,800"
         id="path3250" />
      <path
         style="fill:#ffffff;fill-opacity:0.37254902;fill-rule:evenodd;stroke:#ffffff;stroke-width:1px;stroke-linecap:butt;stroke-linejoin:miter;stroke-opacity:0.05555555"
         d="M 640,800 L 640,0"
         id="path3252" />
      <path
         style="fill:#ffffff;fill-opacity:0.37254902;fill-rule:evenodd;stroke:#ffffff;stroke-width:1px;stroke-linecap:butt;stroke-linejoin:miter;stroke-opacity:0.05555555"
         d="M 660,0 L 660,800"
         id="path3254" />
      <path
         style="fill:#ffffff;fill-opacity:0.37254902;fill-rule:evenodd;stroke:#ffffff;stroke-width:1px;stroke-linecap:butt;stroke-linejoin:miter;stroke-opacity:0.05555555"
         d="M 680,800 L 680,0"
         id="path3256" />
      <path
         style="fill:#ffffff;fill-opacity:0.37254902;fill-rule:evenodd;stroke:#ffffff;stroke-width:1px;stroke-linecap:butt;stroke-linejoin:miter;stroke-opacity:0.05555555"
         d="M 700,0 L 700,800"
         id="path3258" />
      <path
         style="fill:#ffffff;fill-opacity:0.37254902;fill-rule:evenodd;stroke:#ffffff;stroke-width:1px;stroke-linecap:butt;stroke-linejoin:miter;stroke-opacity:0.05555555"
         d="M 720,800 L 720,0"
         id="path3260" />
      <path
         style="fill:#ffffff;fill-opacity:0.37254902;fill-rule:evenodd;stroke:#ffffff;stroke-width:1px;stroke-linecap:butt;stroke-linejoin:miter;stroke-opacity:0.05555555"
         d="M 740,0 L 740,800"
         id="path3262" />
      <path
         style="fill:#ffffff;fill-opacity:0.37254902;fill-rule:evenodd;stroke:#ffffff;stroke-width:1px;stroke-linecap:butt;stroke-linejoin:miter;stroke-opacity:0.05555555"
         d="M 760,800 L 760,0"
         id="path3264" />
      <path
         style="fill:#ffffff;fill-opacity:0.37254902;fill-rule:evenodd;stroke:#ffffff;stroke-width:1px;stroke-linecap:butt;stroke-linejoin:miter;stroke-opacity:0.05555555"
         d="M 780,0 L 780,800"
         id="path3266" />
      <path
         style="fill:#ffffff;fill-opacity:0.37254902;fill-rule:evenodd;stroke:#ffffff;stroke-width:1px;stroke-linecap:butt;stroke-linejoin:miter;stroke-opacity:0.05555555"
         d="M 0,20 C 800,20 800,20 800,20"
         id="path3268" />
      <path
         style="fill:#ffffff;fill-opacity:0.37254902;fill-rule:evenodd;stroke:#ffffff;stroke-width:1px;stroke-linecap:butt;stroke-linejoin:miter;stroke-opacity:0.05555555"
         d="M 800,40 L 0,40"
         id="path3270" />
      <path
         style="fill:#ffffff;fill-opacity:0.37254902;fill-rule:evenodd;stroke:#ffffff;stroke-width:1px;stroke-linecap:butt;stroke-linejoin:miter;stroke-opacity:0.05555555"
         d="M 0,60 L 800,60"
         id="path3272" />
      <path
         style="fill:#ffffff;fill-opacity:0.37254902;fill-rule:evenodd;stroke:#ffffff;stroke-width:1px;stroke-linecap:butt;stroke-linejoin:miter;stroke-opacity:0.05555555"
         d="M 800,80 L 0,80"
         id="path3274" />
      <path
         style="fill:#ffffff;fill-opacity:0.37254902;fill-rule:evenodd;stroke:#ffffff;stroke-width:1px;stroke-linecap:butt;stroke-linejoin:miter;stroke-opacity:0.05555555"
         d="M 0,100 L 800,100"
         id="path3276" />
      <path
         style="fill:#ffffff;fill-opacity:0.37254902;fill-rule:evenodd;stroke:#ffffff;stroke-width:1px;stroke-linecap:butt;stroke-linejoin:miter;stroke-opacity:0.05555555"
         d="M 800,120 L 0,120"
         id="path3278" />
      <path
         style="fill:#ffffff;fill-opacity:0.37254902;fill-rule:evenodd;stroke:#ffffff;stroke-width:1px;stroke-linecap:butt;stroke-linejoin:miter;stroke-opacity:0.05555555"
         d="M 0,140 L 800,140"
         id="path3280" />
      <path
         style="fill:#ffffff;fill-opacity:0.37254902;fill-rule:evenodd;stroke:#ffffff;stroke-width:1px;stroke-linecap:butt;stroke-linejoin:miter;stroke-opacity:0.05555555"
         d="M 800,160 L 0,160"
         id="path3282" />
      <path
         style="fill:#ffffff;fill-opacity:0.37254902;fill-rule:evenodd;stroke:#ffffff;stroke-width:1px;stroke-linecap:butt;stroke-linejoin:miter;stroke-opacity:0.05555555"
         d="M 0,180 L 800,180"
         id="path3284" />
      <path
         style="fill:#ffffff;fill-opacity:0.37254902;fill-rule:evenodd;stroke:#ffffff;stroke-width:1px;stroke-linecap:butt;stroke-linejoin:miter;stroke-opacity:0.05555555"
         d="M 800,220 L 0,220"
         id="path3286" />
      <path
         style="fill:#ffffff;fill-opacity:0.37254902;fill-rule:evenodd;stroke:#ffffff;stroke-width:1px;stroke-linecap:butt;stroke-linejoin:miter;stroke-opacity:0.05555555"
         d="M 0,240 L 800,240"
         id="path3288" />
      <path
         style="fill:#ffffff;fill-opacity:0.37254902;fill-rule:evenodd;stroke:#ffffff;stroke-width:1px;stroke-linecap:butt;stroke-linejoin:miter;stroke-opacity:0.05555555"
         d="M 800,260 L 0,260"
         id="path3290" />
      <path
         style="fill:#ffffff;fill-opacity:0.37254902;fill-rule:evenodd;stroke:#ffffff;stroke-width:1px;stroke-linecap:butt;stroke-linejoin:miter;stroke-opacity:0.05555555"
         d="M 0,280 L 800,280"
         id="path3292" />
      <path
         style="fill:#ffffff;fill-opacity:0.37254902;fill-rule:evenodd;stroke:#ffffff;stroke-width:1px;stroke-linecap:butt;stroke-linejoin:miter;stroke-opacity:0.05555555"
         d="M 800,300 L 0,300"
         id="path3294" />
      <path
         style="fill:#ffffff;fill-opacity:0.37254902;fill-rule:evenodd;stroke:#ffffff;stroke-width:1px;stroke-linecap:butt;stroke-linejoin:miter;stroke-opacity:0.05555555"
         d="M 0,320 L 800,320"
         id="path3296" />
      <path
         style="fill:#ffffff;fill-opacity:0.37254902;fill-rule:evenodd;stroke:#ffffff;stroke-width:1px;stroke-linecap:butt;stroke-linejoin:miter;stroke-opacity:0.05555555"
         d="M 800,340 L 0,340"
         id="path3298" />
      <path
         style="fill:#ffffff;fill-opacity:0.37254902;fill-rule:evenodd;stroke:#ffffff;stroke-width:1px;stroke-linecap:butt;stroke-linejoin:miter;stroke-opacity:0.05555555"
         d="M 0,360 L 800,360"
         id="path3300" />
      <path
         style="fill:#ffffff;fill-opacity:0.37254902;fill-rule:evenodd;stroke:#ffffff;stroke-width:1px;stroke-linecap:butt;stroke-linejoin:miter;stroke-opacity:0.05555555"
         d="M 800,380 L 0,380"
         id="path3302" />
      <path
         style="fill:#ffffff;fill-opacity:0.37254902;fill-rule:evenodd;stroke:#ffffff;stroke-width:1px;stroke-linecap:butt;stroke-linejoin:miter;stroke-opacity:0.05555555"
         d="M 0,420 L 800,420"
         id="path3304" />
      <path
         style="fill:#ffffff;fill-opacity:0.37254902;fill-rule:evenodd;stroke:#ffffff;stroke-width:1px;stroke-linecap:butt;stroke-linejoin:miter;stroke-opacity:0.05555555"
         d="M 800,440 L 0,440"
         id="path3306" />
      <path
         style="fill:#ffffff;fill-opacity:0.37254902;fill-rule:evenodd;stroke:#ffffff;stroke-width:1px;stroke-linecap:butt;stroke-linejoin:miter;stroke-opacity:0.05555555"
         d="M 0,460 L 800,460"
         id="path3308" />
      <path
         style="fill:#ffffff;fill-opacity:0.37254902;fill-rule:evenodd;stroke:#ffffff;stroke-width:1px;stroke-linecap:butt;stroke-linejoin:miter;stroke-opacity:0.05555555"
         d="M 800,480 L 0,480"
         id="path3310" />
      <path
         style="fill:#ffffff;fill-opacity:0.37254902;fill-rule:evenodd;stroke:#ffffff;stroke-width:1px;stroke-linecap:butt;stroke-linejoin:miter;stroke-opacity:0.05555555"
         d="M 0,500 L 800,500"
         id="path3312" />
      <path
         style="fill:#ffffff;fill-opacity:0.37254902;fill-rule:evenodd;stroke:#ffffff;stroke-width:1px;stroke-linecap:butt;stroke-linejoin:miter;stroke-opacity:0.05555555"
         d="M 800,520 L 0,520"
         id="path3314" />
      <path
         style="fill:#ffffff;fill-opacity:0.37254902;fill-rule:evenodd;stroke:#ffffff;stroke-width:1px;stroke-linecap:butt;stroke-linejoin:miter;stroke-opacity:0.05555555"
         d="M 0,540 L 800,540"
         id="path3316" />
      <path
         style="fill:#ffffff;fill-opacity:0.37254902;fill-rule:evenodd;stroke:#ffffff;stroke-width:1px;stroke-linecap:butt;stroke-linejoin:miter;stroke-opacity:0.05555555"
         d="M 800,560 L 0,560"
         id="path3318" />
      <path
         style="fill:#ffffff;fill-opacity:0.37254902;fill-rule:evenodd;stroke:#ffffff;stroke-width:1px;stroke-linecap:butt;stroke-linejoin:miter;stroke-opacity:0.05555555"
         d="M 0,580 L 800,580"
         id="path3320" />
      <path
         style="fill:#ffffff;fill-opacity:0.37254902;fill-rule:evenodd;stroke:#ffffff;stroke-width:1px;stroke-linecap:butt;stroke-linejoin:miter;stroke-opacity:0.05555555"
         d="M 800,620 L 0,620"
         id="path3324" />
      <path
         style="fill:#ffffff;fill-opacity:0.37254902;fill-rule:evenodd;stroke:#ffffff;stroke-width:1px;stroke-linecap:butt;stroke-linejoin:miter;stroke-opacity:0.05555555"
         d="M 0,640 L 800,640"
         id="path3326" />
      <path
         style="fill:#ffffff;fill-opacity:0.37254902;fill-rule:evenodd;stroke:#ffffff;stroke-width:1px;stroke-linecap:butt;stroke-linejoin:miter;stroke-opacity:0.05555555"
         d="M 800,660 L 0,660"
         id="path3328" />
      <path
         style="fill:#ffffff;fill-opacity:0.37254902;fill-rule:evenodd;stroke:#ffffff;stroke-width:1px;stroke-linecap:butt;stroke-linejoin:miter;stroke-opacity:0.05555555"
         d="M 0,680 L 800,680"
         id="path3330" />
      <path
         style="fill:#ffffff;fill-opacity:0.37254902;fill-rule:evenodd;stroke:#ffffff;stroke-width:1px;stroke-linecap:butt;stroke-linejoin:miter;stroke-opacity:0.05555555"
         d="M 800,700 L 0,700"
         id="path3332" />
      <path
         style="fill:#ffffff;fill-opacity:0.37254902;fill-rule:evenodd;stroke:#ffffff;stroke-width:1px;stroke-linecap:butt;stroke-linejoin:miter;stroke-opacity:0.05555555"
         d="M 0,720 L 800,720"
         id="path3334" />
      <path
         style="fill:#ffffff;fill-opacity:0.37254902;fill-rule:evenodd;stroke:#ffffff;stroke-width:1px;stroke-linecap:butt;stroke-linejoin:miter;stroke-opacity:0.05555555"
         d="M 800,740 L 0,740"
         id="path3336" />
      <path
         style="fill:#ffffff;fill-opacity:0.37254902;fill-rule:evenodd;stroke:#ffffff;stroke-width:1px;stroke-linecap:butt;stroke-linejoin:miter;stroke-opacity:0.05555555"
         d="M 0,760 L 800,760"
         id="path3338" />
      <path
         style="fill:#ffffff;fill-opacity:0.37254902;fill-rule:evenodd;stroke:#ffffff;stroke-width:1px;stroke-linecap:butt;stroke-linejoin:miter;stroke-opacity:0.05555555"
         d="M 800,780 L 0,780"
         id="path3340" />
    </g>
    <g
       inkscape:groupmode="layer"
       id="layer4"
       inkscape:label="Major"
       sodipodi:insensitive="true"
       style="display:inline">
      <path
         style="fill:none;fill-rule:evenodd;stroke:#ffffff;stroke-width:1px;stroke-linecap:butt;stroke-linejoin:miter;stroke-opacity:0.09999999"
         d="M 200,0 L 200,800"
         id="path2203" />
      <path
         style="fill:none;fill-rule:evenodd;stroke:#ffffff;stroke-width:1px;stroke-linecap:butt;stroke-linejoin:miter;stroke-opacity:0.09999999"
         d="M 400,0 L 400,800"
         id="path2205" />
      <path
         style="fill:none;fill-rule:evenodd;stroke:#ffffff;stroke-width:1px;stroke-linecap:butt;stroke-linejoin:miter;stroke-opacity:0.09999999"
         d="M 600,0 L 600,800"
         id="path2207" />
      <path
         style="fill:none;fill-rule:evenodd;stroke:#ffffff;stroke-width:1px;stroke-linecap:butt;stroke-linejoin:miter;stroke-opacity:0.09999999"
         d="M 0,200 C 800,200 800,200 800,200"
         id="path2209" />
      <path
         style="fill:none;fill-rule:evenodd;stroke:#ffffff;stroke-width:1px;stroke-linecap:butt;stroke-linejoin:miter;stroke-opacity:0.09999999"
         d="M 0,400 C 800,400 800,400 800,400"
         id="path2211" />
      <path
         style="fill:#ffffff;fill-opacity:0.37254902;fill-rule:evenodd;stroke:#ffffff;stroke-width:1px;stroke-linecap:butt;stroke-linejoin:miter;stroke-opacity:0.09999999"
         d="M 0,600 C 800,600 800,600 800,600"
         id="path2213" />
    </g>
  </g>
  <g
     inkscape:groupmode="layer"
     id="layer5"
     inkscape:label="Hex Grid"
     style="display:none"
     sodipodi:insensitive="true">
    <g
       id="g3149"
       transform="translate(0.500145,0.4999004)"
       style="stroke:#ffffff;stroke-opacity:0.05555555">
      <g
         style="fill:none;stroke:#ffffff;stroke-width:1;stroke-opacity:0.05555555"
         id="grid">
        <use
           id="use3152"
           xlink:href="#outline"
           y="9.8641996"
           x="0"
           width="800"
           height="800"
           style="stroke:#ffffff;stroke-opacity:0.05555555" />
        <use
           id="use3154"
           xlink:href="#bottoms"
           y="19.728399"
           x="19.8099"
           width="800"
           height="800"
           style="stroke:#ffffff;stroke-opacity:0.05555555" />
        <use
           id="use3156"
           xlink:href="#tops"
           y="19.728399"
           x="6.6033101"
           width="800"
           height="800"
           style="stroke:#ffffff;stroke-opacity:0.05555555" />
        <use
           id="use3158"
           xlink:href="#bottoms"
           y="39.456799"
           x="19.8099"
           width="800"
           height="800"
           style="stroke:#ffffff;stroke-opacity:0.05555555" />
        <use
           id="use3160"
           xlink:href="#tops"
           y="39.456799"
           x="6.6033101"
           width="800"
           height="800"
           style="stroke:#ffffff;stroke-opacity:0.05555555" />
        <use
           id="use3162"
           xlink:href="#bottoms"
           y="59.1852"
           x="19.8099"
           width="800"
           height="800"
           style="stroke:#ffffff;stroke-opacity:0.05555555" />
        <use
           id="use3164"
           xlink:href="#tops"
           y="59.1852"
           x="6.6033101"
           width="800"
           height="800"
           style="stroke:#ffffff;stroke-opacity:0.05555555" />
        <use
           id="use3166"
           xlink:href="#bottoms"
           y="78.913597"
           x="19.8099"
           width="800"
           height="800"
           style="stroke:#ffffff;stroke-opacity:0.05555555" />
        <use
           id="use3168"
           xlink:href="#tops"
           y="78.913597"
           x="6.6033101"
           width="800"
           height="800"
           style="stroke:#ffffff;stroke-opacity:0.05555555" />
        <use
           id="use3170"
           xlink:href="#bottoms"
           y="98.641998"
           x="19.8099"
           width="800"
           height="800"
           style="stroke:#ffffff;stroke-opacity:0.05555555" />
        <use
           id="use3172"
           xlink:href="#tops"
           y="98.641998"
           x="6.6033101"
           width="800"
           height="800"
           style="stroke:#ffffff;stroke-opacity:0.05555555" />
        <use
           id="use3174"
           xlink:href="#bottoms"
           y="118.37"
           x="19.8099"
           width="800"
           height="800"
           style="stroke:#ffffff;stroke-opacity:0.05555555" />
        <use
           id="use3176"
           xlink:href="#tops"
           y="118.37"
           x="6.6033101"
           width="800"
           height="800"
           style="stroke:#ffffff;stroke-opacity:0.05555555" />
        <use
           id="use3178"
           xlink:href="#bottoms"
           y="138.099"
           x="19.8099"
           width="800"
           height="800"
           style="stroke:#ffffff;stroke-opacity:0.05555555" />
        <use
           id="use3180"
           xlink:href="#tops"
           y="138.099"
           x="6.6033101"
           width="800"
           height="800"
           style="stroke:#ffffff;stroke-opacity:0.05555555" />
        <use
           id="use3182"
           xlink:href="#bottoms"
           y="157.827"
           x="19.8099"
           width="800"
           height="800"
           style="stroke:#ffffff;stroke-opacity:0.05555555" />
        <use
           id="use3184"
           xlink:href="#tops"
           y="157.827"
           x="6.6033101"
           width="800"
           height="800"
           style="stroke:#ffffff;stroke-opacity:0.05555555" />
        <use
           id="use3186"
           xlink:href="#bottoms"
           y="177.556"
           x="19.8099"
           width="800"
           height="800"
           style="stroke:#ffffff;stroke-opacity:0.05555555" />
        <use
           id="use3188"
           xlink:href="#tops"
           y="177.556"
           x="6.6033101"
           width="800"
           height="800"
           style="stroke:#ffffff;stroke-opacity:0.05555555" />
        <use
           id="use3190"
           xlink:href="#bottoms"
           y="197.284"
           x="19.8099"
           width="800"
           height="800"
           style="stroke:#ffffff;stroke-opacity:0.05555555" />
        <use
           id="use3192"
           xlink:href="#tops"
           y="197.284"
           x="6.6033101"
           width="800"
           height="800"
           style="stroke:#ffffff;stroke-opacity:0.05555555" />
        <use
           id="use3194"
           xlink:href="#bottoms"
           y="217.01199"
           x="19.8099"
           width="800"
           height="800"
           style="stroke:#ffffff;stroke-opacity:0.05555555" />
        <use
           id="use3196"
           xlink:href="#tops"
           y="217.01199"
           x="6.6033101"
           width="800"
           height="800"
           style="stroke:#ffffff;stroke-opacity:0.05555555" />
        <use
           id="use3198"
           xlink:href="#bottoms"
           y="236.741"
           x="19.8099"
           width="800"
           height="800"
           style="stroke:#ffffff;stroke-opacity:0.05555555" />
        <use
           id="use3200"
           xlink:href="#tops"
           y="236.741"
           x="6.6033101"
           width="800"
           height="800"
           style="stroke:#ffffff;stroke-opacity:0.05555555" />
        <use
           id="use3202"
           xlink:href="#bottoms"
           y="256.46899"
           x="19.8099"
           width="800"
           height="800"
           style="stroke:#ffffff;stroke-opacity:0.05555555" />
        <use
           id="use3204"
           xlink:href="#tops"
           y="256.46899"
           x="6.6033101"
           width="800"
           height="800"
           style="stroke:#ffffff;stroke-opacity:0.05555555" />
        <use
           id="use3206"
           xlink:href="#bottoms"
           y="276.198"
           x="19.8099"
           width="800"
           height="800"
           style="stroke:#ffffff;stroke-opacity:0.05555555" />
        <use
           id="use3208"
           xlink:href="#tops"
           y="276.198"
           x="6.6033101"
           width="800"
           height="800"
           style="stroke:#ffffff;stroke-opacity:0.05555555" />
        <use
           id="use3210"
           xlink:href="#bottoms"
           y="295.92599"
           x="19.8099"
           width="800"
           height="800"
           style="stroke:#ffffff;stroke-opacity:0.05555555" />
        <use
           id="use3212"
           xlink:href="#tops"
           y="295.92599"
           x="6.6033101"
           width="800"
           height="800"
           style="stroke:#ffffff;stroke-opacity:0.05555555" />
        <use
           id="use3214"
           xlink:href="#bottoms"
           y="315.65399"
           x="19.8099"
           width="800"
           height="800"
           style="stroke:#ffffff;stroke-opacity:0.05555555" />
        <use
           id="use3216"
           xlink:href="#tops"
           y="315.65399"
           x="6.6033101"
           width="800"
           height="800"
           style="stroke:#ffffff;stroke-opacity:0.05555555" />
        <use
           id="use3218"
           xlink:href="#bottoms"
           y="335.383"
           x="19.8099"
           width="800"
           height="800"
           style="stroke:#ffffff;stroke-opacity:0.05555555" />
        <use
           id="use3220"
           xlink:href="#tops"
           y="335.383"
           x="6.6033101"
           width="800"
           height="800"
           style="stroke:#ffffff;stroke-opacity:0.05555555" />
        <use
           id="use3222"
           xlink:href="#bottoms"
           y="355.11099"
           x="19.8099"
           width="800"
           height="800"
           style="stroke:#ffffff;stroke-opacity:0.05555555" />
        <use
           id="use3224"
           xlink:href="#tops"
           y="355.11099"
           x="6.6033101"
           width="800"
           height="800"
           style="stroke:#ffffff;stroke-opacity:0.05555555" />
        <use
           id="use3226"
           xlink:href="#bottoms"
           y="374.84"
           x="19.8099"
           width="800"
           height="800"
           style="stroke:#ffffff;stroke-opacity:0.05555555" />
        <use
           id="use3228"
           xlink:href="#tops"
           y="374.84"
           x="6.6033101"
           width="800"
           height="800"
           style="stroke:#ffffff;stroke-opacity:0.05555555" />
        <use
           id="use3230"
           xlink:href="#bottoms"
           y="394.56799"
           x="19.8099"
           width="800"
           height="800"
           style="stroke:#ffffff;stroke-opacity:0.05555555" />
        <use
           id="use3232"
           xlink:href="#tops"
           y="394.56799"
           x="6.6033101"
           width="800"
           height="800"
           style="stroke:#ffffff;stroke-opacity:0.05555555" />
        <use
           id="use3234"
           xlink:href="#bottoms"
           y="414.29599"
           x="19.8099"
           width="800"
           height="800"
           style="stroke:#ffffff;stroke-opacity:0.05555555" />
        <use
           id="use3236"
           xlink:href="#tops"
           y="414.29599"
           x="6.6033101"
           width="800"
           height="800"
           style="stroke:#ffffff;stroke-opacity:0.05555555" />
        <use
           id="use3238"
           xlink:href="#bottoms"
           y="434.02499"
           x="19.8099"
           width="800"
           height="800"
           style="stroke:#ffffff;stroke-opacity:0.05555555" />
        <use
           id="use3240"
           xlink:href="#tops"
           y="434.02499"
           x="6.6033101"
           width="800"
           height="800"
           style="stroke:#ffffff;stroke-opacity:0.05555555" />
        <use
           id="use3242"
           xlink:href="#bottoms"
           y="453.75299"
           x="19.8099"
           width="800"
           height="800"
           style="stroke:#ffffff;stroke-opacity:0.05555555" />
        <use
           id="use3244"
           xlink:href="#tops"
           y="453.75299"
           x="6.6033101"
           width="800"
           height="800"
           style="stroke:#ffffff;stroke-opacity:0.05555555" />
        <use
           id="use3246"
           xlink:href="#bottoms"
           y="473.48099"
           x="19.8099"
           width="800"
           height="800"
           style="stroke:#ffffff;stroke-opacity:0.05555555" />
        <use
           id="use3248"
           xlink:href="#tops"
           y="473.48099"
           x="6.6033101"
           width="800"
           height="800"
           style="stroke:#ffffff;stroke-opacity:0.05555555" />
        <use
           id="use3250"
           xlink:href="#bottoms"
           y="493.20999"
           x="19.8099"
           width="800"
           height="800"
           style="stroke:#ffffff;stroke-opacity:0.05555555" />
        <use
           id="use3252"
           xlink:href="#tops"
           y="493.20999"
           x="6.6033101"
           width="800"
           height="800"
           style="stroke:#ffffff;stroke-opacity:0.05555555" />
        <use
           id="use3254"
           xlink:href="#bottoms"
           y="512.93799"
           x="19.8099"
           width="800"
           height="800"
           style="stroke:#ffffff;stroke-opacity:0.05555555" />
        <use
           id="use3256"
           xlink:href="#tops"
           y="512.93799"
           x="6.6033101"
           width="800"
           height="800"
           style="stroke:#ffffff;stroke-opacity:0.05555555" />
        <use
           id="use3258"
           xlink:href="#bottoms"
           y="532.66699"
           x="19.8099"
           width="800"
           height="800"
           style="stroke:#ffffff;stroke-opacity:0.05555555" />
        <use
           id="use3260"
           xlink:href="#tops"
           y="532.66699"
           x="6.6033101"
           width="800"
           height="800"
           style="stroke:#ffffff;stroke-opacity:0.05555555" />
        <use
           id="use3262"
           xlink:href="#bottoms"
           y="552.39502"
           x="19.8099"
           width="800"
           height="800"
           style="stroke:#ffffff;stroke-opacity:0.05555555" />
        <use
           id="use3264"
           xlink:href="#tops"
           y="552.39502"
           x="6.6033101"
           width="800"
           height="800"
           style="stroke:#ffffff;stroke-opacity:0.05555555" />
        <use
           id="use3266"
           xlink:href="#bottoms"
           y="572.12299"
           x="19.8099"
           width="800"
           height="800"
           style="stroke:#ffffff;stroke-opacity:0.05555555" />
        <use
           id="use3268"
           xlink:href="#tops"
           y="572.12299"
           x="6.6033101"
           width="800"
           height="800"
           style="stroke:#ffffff;stroke-opacity:0.05555555" />
        <use
           id="use3270"
           xlink:href="#bottoms"
           y="591.85199"
           x="19.8099"
           width="800"
           height="800"
           style="stroke:#ffffff;stroke-opacity:0.05555555" />
        <use
           id="use3272"
           xlink:href="#tops"
           y="591.85199"
           x="6.6033101"
           width="800"
           height="800"
           style="stroke:#ffffff;stroke-opacity:0.05555555" />
        <use
           id="use3274"
           xlink:href="#bottoms"
           y="611.58002"
           x="19.8099"
           width="800"
           height="800"
           style="stroke:#ffffff;stroke-opacity:0.05555555" />
        <use
           id="use3276"
           xlink:href="#tops"
           y="611.58002"
           x="6.6033101"
           width="800"
           height="800"
           style="stroke:#ffffff;stroke-opacity:0.05555555" />
        <use
           id="use3278"
           xlink:href="#bottoms"
           y="631.30902"
           x="19.8099"
           width="800"
           height="800"
           style="stroke:#ffffff;stroke-opacity:0.05555555" />
        <use
           id="use3280"
           xlink:href="#tops"
           y="631.30902"
           x="6.6033101"
           width="800"
           height="800"
           style="stroke:#ffffff;stroke-opacity:0.05555555" />
        <use
           id="use3282"
           xlink:href="#bottoms"
           y="651.03699"
           x="19.8099"
           width="800"
           height="800"
           style="stroke:#ffffff;stroke-opacity:0.05555555" />
        <use
           id="use3284"
           xlink:href="#tops"
           y="651.03699"
           x="6.6033101"
           width="800"
           height="800"
           style="stroke:#ffffff;stroke-opacity:0.05555555" />
        <use
           id="use3286"
           xlink:href="#bottoms"
           y="670.76501"
           x="19.8099"
           width="800"
           height="800"
           style="stroke:#ffffff;stroke-opacity:0.05555555" />
        <use
           id="use3288"
           xlink:href="#tops"
           y="670.76501"
           x="6.6033101"
           width="800"
           height="800"
           style="stroke:#ffffff;stroke-opacity:0.05555555" />
        <use
           id="use3290"
           xlink:href="#bottoms"
           y="690.49402"
           x="19.8099"
           width="800"
           height="800"
           style="stroke:#ffffff;stroke-opacity:0.05555555" />
        <use
           id="use3292"
           xlink:href="#tops"
           y="690.49402"
           x="6.6033101"
           width="800"
           height="800"
           style="stroke:#ffffff;stroke-opacity:0.05555555" />
        <use
           id="use3294"
           xlink:href="#bottoms"
           y="710.22198"
           x="19.8099"
           width="800"
           height="800"
           style="stroke:#ffffff;stroke-opacity:0.05555555" />
        <use
           id="use3296"
           xlink:href="#tops"
           y="710.22198"
           x="6.6033101"
           width="800"
           height="800"
           style="stroke:#ffffff;stroke-opacity:0.05555555" />
        <use
           id="use3298"
           xlink:href="#bottoms"
           y="729.95099"
           x="19.8099"
           width="800"
           height="800"
           style="stroke:#ffffff;stroke-opacity:0.05555555" />
        <use
           id="use3300"
           xlink:href="#tops"
           y="729.95099"
           x="6.6033101"
           width="800"
           height="800"
           style="stroke:#ffffff;stroke-opacity:0.05555555" />
        <use
           id="use3302"
           xlink:href="#bottoms"
           y="749.67902"
           x="19.8099"
           width="800"
           height="800"
           style="stroke:#ffffff;stroke-opacity:0.05555555" />
        <use
           id="use3304"
           xlink:href="#tops"
           y="749.67902"
           x="6.6033101"
           width="800"
           height="800"
           style="stroke:#ffffff;stroke-opacity:0.05555555" />
        <use
           id="use3306"
           xlink:href="#bottoms"
           y="769.40698"
           x="19.8099"
           width="800"
           height="800"
           style="stroke:#ffffff;stroke-opacity:0.05555555" />
        <use
           id="use3308"
           xlink:href="#tops"
           y="769.40698"
           x="6.6033101"
           width="800"
           height="800"
           style="stroke:#ffffff;stroke-opacity:0.05555555" />
        <use
           id="use3310"
           xlink:href="#bottoms"
           y="789.13599"
           x="19.8099"
           width="800"
           height="800"
           style="stroke:#ffffff;stroke-opacity:0.05555555" />
      </g>
    </g>
  </g>
</svg>
